<svg width="32" height="32" viewBox="0 0 32 32" xmlns="http://www.w3.org/2000/svg">
  <!-- Casa com gradiente dourado -->
	<defs>
    <linearGradient id="houseGradient" x1="0%" y1="0%" x2="100%" y2="100%">
      <stop offset="0%" style="stop-color:#fbbf24;stop-opacity:1" />
      <stop offset="100%" style="stop-color:#d97706;stop-opacity:1" />
    </linearGradient>
	</defs>
  
  <!-- Fundo circular -->
  <circle cx="16" cy="16" r="16" fill="#1f2937"/>
  
  <!-- Telhado da casa -->
  <polygon points="16,6 26,14 6,14" fill="#92400e" />
  
  <!-- Corpo da casa -->
  <rect x="6" y="14" width="20" height="16" fill="url(#houseGradient)" rx="2" />
  
  <!-- Aperto de mãos em forma de coração (simplificado) -->
  <!-- Mão direita (superior) -->
  <path d="M20 18 Q22 16 24 18 Q23 19 22 20 Q21 19 20 18" fill="#451a03" />
  
  <!-- Mão esquerda (inferior) -->
  <path d="M12 24 Q10 26 8 24 Q9 23 10 22 Q11 23 12 24" fill="#451a03" />
  
  <!-- Conexão central (coração) -->
  <path d="M16 22 Q18 20 20 22 Q19 24 16 26 Q13 24 12 22 Q14 20 16 22" fill="#451a03" />
</svg>