<svg width="200" height="200" viewBox="0 0 200 200" xmlns="http://www.w3.org/2000/svg">
  <!-- Casa com gradiente dourado -->
  <defs>
    <linearGradient id="houseGradient" x1="0%" y1="0%" x2="100%" y2="100%">
      <stop offset="0%" style="stop-color:#fbbf24;stop-opacity:1" />
      <stop offset="100%" style="stop-color:#d97706;stop-opacity:1" />
    </linearGradient>
  </defs>
  
  <!-- Telhado da casa -->
  <polygon points="100,20 160,80 40,80" fill="#92400e" />
  
  <!-- Corpo da casa -->
  <rect x="40" y="80" width="120" height="100" fill="url(#houseGradient)" rx="8" />
  
  <!-- Aperto de mãos em forma de coração -->
  <!-- Mão direita (superior) -->
  <path d="M120 120 Q130 110 140 120 Q135 125 130 130 Q125 125 120 120" fill="#451a03" />
  
  <!-- Mão esquerda (inferior) -->
  <path d="M80 140 Q70 150 60 140 Q65 135 70 130 Q75 135 80 140" fill="#451a03" />
  
  <!-- Conexão central (coração) -->
  <path d="M100 130 Q110 120 120 130 Q115 140 100 150 Q85 140 80 130 Q90 120 100 130" fill="#451a03" />
  
  <!-- Detalhes das mãos -->
  <circle cx="125" cy="125" r="3" fill="#451a03" />
  <circle cx="75" cy="135" r="3" fill="#451a03" />
</svg>
